<svg width="12" height="9" viewBox="0 0 12 9" fill="none" xmlns="http://www.w3.org/2000/svg">
<path d="M3.25202 0.217455C5.08056 0.0639082 6.91944 0.0639081 8.74798 0.217455L9.62895 0.291432C10.2154 0.34068 10.7177 0.678593 10.978 1.16195C11.0113 1.22379 10.9863 1.29865 10.9249 1.33534L7.26981 3.52112C6.48588 3.9899 5.49742 3.99974 4.70366 3.54665L1.0241 1.44629C0.96465 1.41235 0.937363 1.3425 0.964154 1.28102C1.20225 0.734672 1.73753 0.344631 2.37105 0.291433L3.25202 0.217455Z" fill="white"/>
<path d="M0.96116 2.39215C0.870181 2.34022 0.754096 2.39611 0.743491 2.49767C0.595479 3.91523 0.631302 5.34621 0.85096 6.75728C0.96676 7.50116 1.59525 8.07145 2.37105 8.13659L3.25202 8.21057C5.08056 8.36412 6.91944 8.36412 8.74798 8.21057L9.62895 8.13659C10.4048 8.07145 11.0332 7.50116 11.149 6.75728C11.3751 5.30509 11.4065 3.83181 11.2431 2.37378C11.2316 2.27149 11.1136 2.21664 11.023 2.27079L7.73037 4.2398C6.66977 4.87404 5.33243 4.88735 4.25853 4.27435L0.96116 2.39215Z" fill="white"/>
</svg>
